<svg width="150" height="54" viewBox="0 0 150 54" fill="none" xmlns="http://www.w3.org/2000/svg">
<path d="M100.872 10.2197C100.872 10.2197 96.9327 12.8633 99.9894 14.7332C101.975 15.9582 106.607 18.5373 106.323 20.5361C106.323 20.5361 108.529 17.8603 105.63 15.7003C103.771 14.3463 98.6344 12.412 100.872 10.2197Z" fill="white"/>
<path d="M106.071 1.2251C106.071 1.2251 105.756 3.3851 102.353 4.44898C98.3193 5.70629 93.6239 9.05913 94.8844 14.0561C94.8844 14.0561 92.3634 7.7051 98.918 4.35226C103.456 1.99883 104.086 2.57913 106.071 1.2251Z" fill="white"/>
<path d="M108.151 28.5314C108.12 28.5314 108.498 29.9499 110.294 31.0782C112.248 32.3033 115.872 33.206 121.765 32.4323C133.834 30.8848 149.212 30.369 149.622 40.0406C149.622 40.0406 149.591 34.3021 136.733 34.7535C125.735 35.1726 110.042 38.0741 108.151 28.5314Z" fill="white"/>
<path d="M110.137 25.2109C110.137 25.2109 109.853 21.5679 114.706 21.6968C119.59 21.7935 122.773 24.3404 128.729 26.0168C133.33 27.3064 137.836 27.2741 140.578 26.5649C140.578 26.5649 133.078 31.6264 122.71 26.6294C112.343 21.6323 111.051 24.3082 110.137 25.2109Z" fill="white"/>
<path d="M110.987 19.4724C110.987 19.4724 112.059 16.4097 118.519 16.3775C126.302 16.3775 131.597 16.5387 133.487 13.7661C133.487 13.7661 133.802 19.6336 124.38 18.8921C116.155 18.2473 112.09 19.0533 110.987 19.4724Z" fill="white"/>
<path d="M105.252 25.8554C105.252 25.8554 105.599 23.5987 102.605 21.7288C94.3804 16.5384 96.2712 15.7647 98.7922 13.1855C98.7922 13.1855 97.3111 14.6685 100.777 15.9903C104.212 17.2799 106.387 20.4715 106.324 22.3414C106.261 24.1467 105.252 25.8554 105.252 25.8554Z" fill="white"/>
<path d="M99.4535 11.5415C99.4535 11.5415 95.7035 14.5397 99.7687 17.4412C102.51 19.4078 105.756 20.1815 105.189 22.9863C105.189 22.9863 108.939 18.634 104.622 16.603C101.313 14.9911 98.4136 14.0561 99.4535 11.5415Z" fill="white"/>
<path d="M109.317 25.0817C109.317 25.0817 109.065 17.0864 120.851 18.8596C129.391 20.1491 143.319 22.9217 147.384 15.1199C147.384 15.1199 147.164 29.176 127.846 25.6942C127.846 25.6942 125.073 25.3073 118.582 23.0829C112.468 21.0196 110.452 24.1145 109.317 25.0817Z" fill="white"/>
<path d="M110.735 22.4383C110.735 22.4383 109.822 16.6675 120.252 17.4735C127.752 18.0538 140.704 16.6675 143.603 12.9601C143.603 12.9601 141.523 23.2443 127.122 20.6329C110.735 17.667 110.735 22.4383 110.735 22.4383Z" fill="white"/>
<path d="M98.6659 18.9885C98.6659 18.9885 98.3823 18.4082 98.2563 17.6668C97.8151 14.9909 97.7836 9.02675 105.977 10.2518C114.107 11.4769 118.771 8.44645 119.811 4.48108C119.811 4.48108 116.502 8.05959 108.498 7.57601C98.4453 6.96347 94.7269 11.9927 98.6659 18.9885Z" fill="white"/>
<path d="M118.298 1.19287C118.298 1.19287 116.471 7.18929 107.836 8.0275C101.628 8.64003 99.6745 10.123 98.477 11.735C97.5001 13.0568 96.9329 15.6359 98.6661 18.9887C98.6661 18.9887 95.0737 14.8621 96.7438 11.3481C98.414 7.83406 100.935 6.31884 105.725 5.25496C109.254 4.44899 115.21 4.06212 118.298 1.19287Z" fill="white"/>
<path d="M111.397 0.0966797C111.397 0.0966797 110.924 3.3528 103.487 6.35101C98.1302 8.51101 94.3803 13.0244 98.6975 18.9886C98.6975 18.9886 91.6071 13.6692 95.6408 7.60832C95.6408 7.60832 97.5945 4.44892 102.668 3.44952C105.693 2.80474 109.821 2.06325 111.397 0.0966797Z" fill="white"/>
<path d="M108.939 28.6602C108.939 28.6602 107.017 32.7867 124.349 34.6243C145.494 36.8488 143.036 45.4566 141.933 47.5521C141.933 47.5521 143.792 43.0064 133.897 39.5891C125.2 36.6231 124.412 38.6542 117.7 35.6237C110.956 32.6255 107.489 32.4966 108.939 28.6602Z" fill="white"/>
<path d="M107.08 31.3038C107.08 31.3038 108.341 32.8513 114.927 37.397C122.08 42.3295 117.794 54 108.341 52.1623C108.341 52.1623 114.107 54.9026 118.96 51.2919C125.452 46.4883 120.315 37.7194 113.635 34.8823C109.349 33.077 109.254 32.6579 107.08 31.3038Z" fill="white"/>
<path d="M117.447 13.1212C117.447 13.1212 109.16 9.70391 106.103 17.9893C103.046 26.2747 105.031 30.7881 110.452 33.883C115.872 36.9457 129.737 43.2 128.004 51.1953C128.004 51.1953 134.086 39.2669 116.66 34.5923C106.008 31.7553 108.844 28.2735 110.641 24.2114C112.973 18.9564 112.185 13.2179 117.447 13.1212Z" fill="white"/>
<path d="M8.19328 32.0453C8.19328 32.142 8.16176 32.2709 8.13025 32.3354C8.09874 32.4321 8.03571 32.4966 7.97269 32.5933C7.90966 32.6578 7.81512 32.7223 7.72059 32.7545C7.62605 32.7868 7.53151 32.819 7.43697 32.819C7.34244 32.819 7.2479 32.7868 7.15336 32.7545C7.05882 32.7223 6.96428 32.6578 6.90126 32.5933L1.48109 26.7903V32.6901H0V24.9527C0 24.7915 0.0315126 24.6626 0.12605 24.5336C0.220588 24.4047 0.315126 24.308 0.441176 24.2435C0.598739 24.179 0.756302 24.179 0.882353 24.2112C1.03992 24.2435 1.16597 24.308 1.2605 24.4369L6.68067 30.2399V24.308H8.19328V32.0453Z" fill="white"/>
<path d="M18.7183 32.6902H17.1112V30.4657H11.4389V32.6902H9.83179V28.1446C9.83179 27.4675 9.95784 26.855 10.1784 26.3069C10.399 25.7589 10.7141 25.2753 11.1238 24.8562C11.5335 24.4693 11.9746 24.1469 12.5419 23.9213C13.0776 23.6956 13.6763 23.5989 14.3066 23.5989H17.9305C18.0566 23.5989 18.1511 23.6311 18.2457 23.6634C18.3402 23.6956 18.4347 23.7601 18.4978 23.8568C18.5608 23.9213 18.6238 24.018 18.6868 24.1147C18.7183 24.2114 18.7499 24.3081 18.7499 24.4371L18.7183 32.6902ZM11.4389 28.7893H17.1112V25.2431H14.2751C14.212 25.2431 14.1175 25.2431 13.9599 25.2753C13.8024 25.2753 13.6133 25.3398 13.3927 25.372C13.1721 25.4365 12.9515 25.5332 12.7309 25.6299C12.5104 25.7589 12.2898 25.9201 12.1007 26.1457C11.9116 26.3714 11.7541 26.6293 11.628 26.9517C11.502 27.2741 11.4389 27.661 11.4389 28.1446V28.7893Z" fill="white"/>
<path d="M30.9455 32.6901H29.3069V27.274L26.4392 32.4322C26.3762 32.5611 26.2817 32.6578 26.1556 32.7223C26.0296 32.7868 25.9035 32.819 25.7459 32.819C25.6199 32.819 25.4623 32.7868 25.3363 32.7223C25.2102 32.6578 25.1157 32.5611 25.0527 32.4322L22.185 27.274V32.6901H20.5779V24.308C20.5779 24.1146 20.6409 23.9534 20.7354 23.7922C20.83 23.631 20.9875 23.5343 21.1766 23.502C21.2712 23.4698 21.3657 23.4698 21.4287 23.4698C21.5233 23.4698 21.5863 23.502 21.6808 23.5343C21.7754 23.5665 21.8384 23.5987 21.9014 23.6632C21.9644 23.7277 22.0275 23.7922 22.059 23.8566L25.7459 30.4011L29.4329 23.8566C29.5275 23.6955 29.6535 23.5665 29.8426 23.502C30.0001 23.4375 30.1892 23.4375 30.3783 23.4698C30.5674 23.5343 30.6934 23.631 30.8195 23.7599C30.9455 23.9211 30.977 24.0823 30.977 24.2758V32.6901H30.9455Z" fill="white"/>
<path d="M42.1641 29.0149C42.1641 29.563 42.0695 30.0788 41.8805 30.5301C41.6914 30.9815 41.4393 31.4006 41.0926 31.723C40.746 32.0776 40.3679 32.3355 39.9267 32.529C39.4855 32.7224 38.9813 32.8191 38.4456 32.8191H36.2712C35.7355 32.8191 35.2313 32.7224 34.7901 32.529C34.349 32.3355 33.9393 32.0776 33.6242 31.723C33.2775 31.4006 33.0254 30.9815 32.8363 30.5301C32.6473 30.0788 32.5527 29.563 32.5527 29.0149V27.274C32.5527 26.726 32.6473 26.2101 32.8363 25.7588C33.0254 25.3075 33.2775 24.8884 33.6242 24.566C33.9393 24.2436 34.349 23.9534 34.7901 23.76C35.2313 23.5666 35.7355 23.4698 36.2712 23.4698H38.4456C38.9813 23.4698 39.4855 23.5666 39.9267 23.76C40.3679 23.9534 40.7775 24.2113 41.0926 24.566C41.4078 24.8884 41.6914 25.3075 41.8805 25.7588C42.0695 26.2424 42.1641 26.726 42.1641 27.274V29.0149ZM40.5569 27.274C40.5569 26.9516 40.4939 26.6615 40.3994 26.4036C40.3048 26.1457 40.1473 25.92 39.9582 25.7266C39.7691 25.5331 39.5485 25.4042 39.2964 25.2752C39.0443 25.1785 38.7607 25.114 38.4456 25.114H36.2712C35.9561 25.114 35.6725 25.1785 35.4204 25.2752C35.1683 25.3719 34.9477 25.5331 34.7586 25.7266C34.5695 25.92 34.4435 26.1457 34.3174 26.4036C34.2229 26.6615 34.1599 26.9516 34.1599 27.274V29.0149C34.1599 29.3373 34.2229 29.6275 34.3174 29.8854C34.412 30.1433 34.5695 30.369 34.7586 30.5624C34.9477 30.7558 35.1683 30.8848 35.4204 31.0137C35.6725 31.1104 35.9561 31.1749 36.2712 31.1749H38.4456C38.7607 31.1749 39.0443 31.1104 39.2964 31.0137C39.5485 30.917 39.7691 30.7558 39.9582 30.5624C40.1473 30.369 40.2733 30.1433 40.3994 29.8854C40.4939 29.6275 40.5569 29.3373 40.5569 29.0149V27.274Z" fill="white"/>
<path d="M52.6262 26.6291C52.6262 27.016 52.5947 27.3383 52.5001 27.6285C52.4056 27.9186 52.2795 28.1766 52.122 28.4022C51.9644 28.6279 51.7753 28.8213 51.5862 28.9825C51.3972 29.1437 51.1766 29.2727 50.956 29.3694C50.7354 29.4661 50.5148 29.5628 50.2942 29.5951C50.0736 29.6273 49.8531 29.6595 49.664 29.6595L53.0358 32.6255H50.5463L47.1745 29.6595H46.0085V28.0476H49.664C49.8531 28.0154 50.0421 27.9831 50.2312 27.9186C50.3888 27.8542 50.5463 27.7574 50.6724 27.6285C50.7984 27.4995 50.893 27.3706 50.956 27.2094C51.019 27.0482 51.0505 26.8548 51.0505 26.6291V25.5975C51.0505 25.5007 51.0505 25.4363 51.019 25.3718C50.9875 25.3073 50.956 25.2751 50.9245 25.2751C50.893 25.2428 50.8615 25.2428 50.7984 25.2428C50.7669 25.2428 50.7354 25.2428 50.7039 25.2428H45.3783V32.69H43.7711V24.4046C43.7711 24.2757 43.8026 24.1789 43.8341 24.0822C43.8657 23.9855 43.9287 23.8888 43.9917 23.8243C44.0547 23.7598 44.1493 23.6954 44.2438 23.6309C44.3383 23.5986 44.4644 23.5664 44.5589 23.5664H50.6724C51.019 23.5664 51.3341 23.6309 51.5862 23.7598C51.8384 23.8888 52.0274 24.05 52.185 24.2757C52.3426 24.4691 52.4371 24.6948 52.5316 24.9204C52.5947 25.1461 52.6262 25.3718 52.6262 25.5652V26.6291Z" fill="white"/>
<path d="M62.9936 32.6902H61.3865V30.4657H55.7142V32.6902H54.1071V28.1446C54.1071 27.4675 54.2331 26.855 54.4537 26.3069C54.6743 25.7589 54.9894 25.2753 55.3991 24.8562C55.8087 24.4693 56.2499 24.1469 56.8171 23.9213C57.3529 23.6956 57.9516 23.5989 58.5818 23.5989H62.2058C62.3318 23.5989 62.4264 23.6311 62.5209 23.6634C62.6155 23.6956 62.71 23.7601 62.773 23.8568C62.836 23.9535 62.8991 24.018 62.9621 24.1147C62.9936 24.2114 63.0251 24.3081 63.0251 24.4371V32.6902H62.9936ZM55.7142 28.7893H61.3865V25.2431H58.5503C58.4873 25.2431 58.3928 25.2431 58.2352 25.2753C58.0776 25.2753 57.8886 25.3398 57.668 25.372C57.4474 25.4365 57.2268 25.5332 57.0062 25.6299C56.7856 25.7589 56.565 25.9201 56.376 26.1457C56.1869 26.3714 56.0293 26.6293 55.9033 26.9517C55.7772 27.2741 55.7142 27.661 55.7142 28.1446V28.7893Z" fill="#FFFFFD"/>
<path d="M73.7396 28.8858C73.7396 29.4339 73.645 29.9497 73.456 30.401C73.2669 30.8524 73.0148 31.2715 72.6681 31.5939C72.3215 31.9163 71.9433 32.2064 71.5022 32.3998C71.061 32.5933 70.5568 32.69 70.0211 32.69H65.6723C65.5463 32.69 65.4517 32.6577 65.3572 32.6255C65.2627 32.5933 65.1681 32.5288 65.1051 32.4643C65.0421 32.3998 64.9791 32.3031 64.9476 32.2064C64.916 32.1097 64.8845 31.9807 64.8845 31.884V24.4046C64.8845 24.2757 64.916 24.1789 64.9476 24.0822C64.9791 23.9855 65.0421 23.8888 65.1051 23.8243C65.1681 23.7598 65.2627 23.6954 65.3572 23.6309C65.4517 23.5986 65.5778 23.5664 65.6723 23.5664H70.0211C70.5568 23.5664 71.061 23.6631 71.5022 23.8566C71.9433 24.05 72.353 24.3079 72.6681 24.6625C73.0148 24.9849 73.2669 25.404 73.456 25.8554C73.645 26.3389 73.7396 26.8225 73.7396 27.3706V28.8858ZM72.1324 27.4028C72.1324 27.0804 72.0694 26.7903 71.9749 26.5324C71.8803 26.2745 71.7228 26.0488 71.5337 25.8554C71.3446 25.6619 71.124 25.533 70.8719 25.404C70.6198 25.3073 70.3362 25.2428 70.0211 25.2428H66.4602V31.0458H70.0211C70.3362 31.0458 70.6198 30.9813 70.8719 30.8846C71.124 30.7879 71.3446 30.6267 71.5337 30.4333C71.7228 30.2398 71.8488 30.0142 71.9749 29.7563C72.0694 29.4983 72.1324 29.2082 72.1324 28.8858V27.4028Z" fill="#FFFFFD"/>
<path d="M84.0442 32.6902H82.437V30.4657H76.7647V32.6902H75.1576V28.1446C75.1576 27.4675 75.2836 26.855 75.5042 26.3069C75.7248 25.7589 76.0399 25.2753 76.4496 24.8562C76.8593 24.4693 77.3005 24.1469 77.8677 23.9213C78.4034 23.6956 79.0021 23.5989 79.6324 23.5989H83.2563C83.3824 23.5989 83.4769 23.6311 83.5715 23.6634C83.666 23.6956 83.7605 23.7601 83.8236 23.8568C83.8866 23.9213 83.9496 24.018 84.0126 24.1147C84.0442 24.2114 84.0757 24.3081 84.0757 24.4371V32.6902H84.0442ZM76.7647 28.7893H82.437V25.2431H79.6009C79.5378 25.2431 79.4433 25.2431 79.2857 25.2753C79.1282 25.2753 78.9391 25.3398 78.7185 25.372C78.4979 25.4365 78.2773 25.5332 78.0568 25.6299C77.8362 25.7589 77.6156 25.9201 77.4265 26.1457C77.2374 26.3714 77.0799 26.6293 76.9538 26.9517C76.8278 27.2741 76.7647 27.661 76.7647 28.1446V28.7893Z" fill="#FFFFFD"/>
<path d="M94.4748 30.0143C94.4748 30.3366 94.4433 30.6268 94.3488 30.8847C94.2543 31.1426 94.1597 31.3683 94.0337 31.5617C93.9076 31.7552 93.75 31.9163 93.561 32.0775C93.3719 32.2065 93.2143 32.3355 92.9937 32.4322C92.8047 32.5289 92.6156 32.5934 92.4265 32.6256C92.2374 32.6578 92.0484 32.6901 91.8593 32.6901H85.6513V31.0459H91.8593C92.1744 31.0459 92.395 30.9492 92.5841 30.7558C92.7416 30.5623 92.8362 30.3044 92.8362 30.0143C92.8362 29.8531 92.8047 29.7241 92.7732 29.5952C92.7416 29.4662 92.6471 29.3695 92.5841 29.2728C92.4895 29.1761 92.395 29.1116 92.269 29.0471C92.1429 28.9826 92.0169 28.9826 91.8593 28.9826H88.1408C87.8887 28.9826 87.6051 28.9504 87.29 28.8537C86.9748 28.7569 86.7227 28.5958 86.4391 28.4023C86.187 28.1766 85.9664 27.9187 85.8089 27.5641C85.6513 27.2095 85.5568 26.7904 85.5568 26.3068C85.5568 25.8232 85.6513 25.4041 85.8089 25.0495C85.9664 24.6949 86.187 24.4369 86.4391 24.2113C86.6912 23.9856 86.9748 23.8567 87.29 23.7599C87.6051 23.6632 87.8887 23.631 88.1408 23.631H93.624V25.2752H88.1408C87.8257 25.2752 87.6051 25.3719 87.416 25.5653C87.2584 25.7587 87.1639 26.0166 87.1639 26.3068C87.1639 26.6292 87.2584 26.8871 87.416 27.0483C87.5736 27.2417 87.8257 27.3384 88.1408 27.3384H91.8593C92.0484 27.3384 92.2059 27.3707 92.4265 27.4029C92.6156 27.4352 92.8047 27.5319 92.9937 27.5964C93.1828 27.6931 93.3719 27.822 93.5295 27.951C93.7185 28.0799 93.8446 28.2734 94.0021 28.4668C94.1282 28.6602 94.2542 28.8859 94.3173 29.1438C94.4433 29.4017 94.4748 29.6919 94.4748 30.0143Z" fill="#FFFFFD"/>
<path d="M61.859 40.8465H55.3989V48.2936H53.7917V40.0405C53.7917 39.9115 53.8233 39.8148 53.8548 39.7181C53.8863 39.6214 53.9493 39.5247 54.0123 39.4602C54.0754 39.3957 54.1699 39.3312 54.2644 39.2667C54.359 39.2345 54.485 39.2023 54.5796 39.2023H61.859V40.8465ZM61.1342 44.5539H56.0291V42.8775H61.1342V44.5539Z" fill="#FFFFFD"/>
<path d="M72.4475 44.5863C72.4475 45.1344 72.353 45.6502 72.1639 46.1015C71.9748 46.5529 71.7227 46.972 71.3761 47.2944C71.0295 47.649 70.6513 47.9069 70.2101 48.1004C69.769 48.2938 69.2648 48.3905 68.729 48.3905H66.5547C66.019 48.3905 65.5148 48.2938 65.0736 48.1004C64.6324 47.9069 64.2227 47.649 63.9076 47.2944C63.561 46.972 63.3089 46.5529 63.1198 46.1015C62.9307 45.6502 62.8362 45.1344 62.8362 44.5863V42.8777C62.8362 42.3296 62.9307 41.8138 63.1198 41.3624C63.3089 40.9111 63.561 40.492 63.9076 40.1696C64.2227 39.8472 64.6324 39.5571 65.0736 39.3636C65.5148 39.1702 66.019 39.0735 66.5547 39.0735H68.729C69.2648 39.0735 69.769 39.1702 70.2101 39.3636C70.6513 39.5571 71.061 39.815 71.3761 40.1696C71.6912 40.492 71.9748 40.9111 72.1639 41.3624C72.353 41.846 72.4475 42.3296 72.4475 42.8777V44.5863ZM70.8404 42.8777C70.8404 42.5553 70.7774 42.2651 70.6828 42.0072C70.5883 41.7493 70.4307 41.5236 70.2416 41.3302C70.0526 41.1368 69.832 41.0078 69.5799 40.8789C69.3278 40.7821 69.0442 40.7177 68.729 40.7177H66.5547C66.2395 40.7177 65.9559 40.7821 65.7038 40.8789C65.4517 40.9756 65.2311 41.1368 65.0421 41.3302C64.853 41.5236 64.7269 41.7493 64.6009 42.0072C64.5064 42.2651 64.4433 42.5553 64.4433 42.8777V44.6186C64.4433 44.9409 64.5064 45.2311 64.6009 45.489C64.6954 45.7469 64.853 45.9726 65.0421 46.166C65.2311 46.3595 65.4517 46.4884 65.7038 46.6174C65.9559 46.7141 66.2395 46.7786 66.5547 46.7786H68.729C69.0442 46.7786 69.3278 46.7141 69.5799 46.6174C69.832 46.5207 70.0526 46.3595 70.2416 46.166C70.4307 45.9726 70.5568 45.7469 70.6828 45.489C70.7774 45.2311 70.8404 44.9409 70.8404 44.6186V42.8777Z" fill="#FFFFFD"/>
<path d="M82.1219 40.8465H75.6618V48.2936H74.0547V40.0405C74.0547 39.9115 74.0862 39.8148 74.1177 39.7181C74.1492 39.6214 74.2122 39.5247 74.2753 39.4602C74.3383 39.3957 74.4328 39.3312 74.5274 39.2667C74.6219 39.2345 74.748 39.2023 74.8425 39.2023H82.1219V40.8465ZM81.3971 44.5539H76.2921V42.8775H81.3971V44.5539Z" fill="#FFFFFD"/>
<path d="M92.71 44.5863C92.71 45.1344 92.6154 45.6502 92.4264 46.1015C92.2373 46.5529 91.9852 46.972 91.6385 47.2944C91.2919 47.649 90.9138 47.9069 90.4726 48.1004C90.0314 48.2938 89.5272 48.3905 88.9915 48.3905H86.8171C86.2814 48.3905 85.7772 48.2938 85.336 48.1004C84.8948 47.9069 84.4852 47.649 84.1701 47.2944C83.8234 46.972 83.5713 46.5529 83.3822 46.1015C83.1932 45.6502 83.0986 45.1344 83.0986 44.5863V42.8777C83.0986 42.3296 83.1932 41.8138 83.3822 41.3624C83.5713 40.9111 83.8234 40.492 84.1701 40.1696C84.5167 39.8472 84.8948 39.5571 85.336 39.3636C85.7772 39.1702 86.2814 39.0735 86.8171 39.0735H88.9915C89.5272 39.0735 90.0314 39.1702 90.4726 39.3636C90.9138 39.5571 91.3234 39.815 91.6385 40.1696C91.9852 40.492 92.2373 40.9111 92.4264 41.3624C92.6154 41.846 92.71 42.3296 92.71 42.8777V44.5863ZM91.0713 42.8777C91.0713 42.5553 91.0083 42.2651 90.9138 42.0072C90.8192 41.7493 90.6617 41.5236 90.4726 41.3302C90.2835 41.1368 90.0629 41.0078 89.8108 40.8789C89.5587 40.7821 89.2751 40.7177 88.96 40.7177H86.7856C86.4705 40.7177 86.1869 40.7821 85.9348 40.8789C85.6827 40.9756 85.4621 41.1368 85.273 41.3302C85.0839 41.5236 84.9579 41.7493 84.8318 42.0072C84.7373 42.2651 84.6743 42.5553 84.6743 42.8777V44.6186C84.6743 44.9409 84.7373 45.2311 84.8318 45.489C84.9264 45.7469 85.0839 45.9726 85.273 46.166C85.4621 46.3595 85.6827 46.4884 85.9348 46.6174C86.1869 46.7141 86.4705 46.7786 86.7856 46.7786H88.96C89.2751 46.7786 89.5587 46.7141 89.8108 46.6174C90.0629 46.5207 90.2835 46.3595 90.4726 46.166C90.6617 45.9726 90.7877 45.7469 90.9138 45.489C91.0083 45.2311 91.0713 44.9409 91.0713 44.6186V42.8777Z" fill="#FFFFFD"/>
<path d="M102.826 45.6179C102.826 45.9403 102.794 46.2304 102.7 46.4884C102.605 46.7463 102.511 46.9719 102.384 47.1654C102.258 47.3588 102.101 47.52 101.912 47.6812C101.723 47.8424 101.565 47.9391 101.345 48.0358C101.155 48.1325 100.966 48.197 100.777 48.2293C100.588 48.2615 100.399 48.2937 100.21 48.2937H94.0021V46.6495H100.21C100.525 46.6495 100.746 46.5528 100.935 46.3594C101.092 46.166 101.187 45.9081 101.187 45.6179C101.187 45.4567 101.155 45.3278 101.124 45.1988C101.092 45.0698 100.998 44.9731 100.935 44.8764C100.84 44.7797 100.746 44.7152 100.62 44.6507C100.494 44.5863 100.368 44.5863 100.21 44.5863H96.4916C96.2395 44.5863 95.9559 44.554 95.6408 44.4573C95.3257 44.3606 95.0736 44.1994 94.7899 44.006C94.5378 43.7803 94.3173 43.5224 94.1597 43.1678C94.0021 42.8131 93.9076 42.394 93.9076 41.9104C93.9076 41.4269 94.0021 41.0078 94.1597 40.6531C94.3173 40.2985 94.5378 40.0406 94.7899 39.8149C95.042 39.5892 95.3257 39.4603 95.6408 39.3636C95.9559 39.2669 96.2395 39.2346 96.4916 39.2346H101.975V40.8788H96.4916C96.1765 40.8788 95.9559 40.9755 95.7668 41.1689C95.6093 41.3624 95.5147 41.6203 95.5147 41.9104C95.5147 42.2328 95.6093 42.4907 95.7668 42.6519C95.9244 42.8454 96.1765 42.9421 96.4916 42.9421H100.21C100.399 42.9421 100.557 42.9743 100.777 43.0066C100.998 43.0388 101.155 43.1355 101.345 43.2C101.534 43.2967 101.723 43.4257 101.88 43.5546C102.069 43.6836 102.195 43.877 102.353 44.0704C102.479 44.2639 102.605 44.4896 102.668 44.7475C102.794 44.9731 102.826 45.2633 102.826 45.6179Z" fill="#FFFFFD"/>
</svg>
