<svg xmlns="http://www.w3.org/2000/svg"><symbol id="Arrow" viewBox="0 0 24 24"><path d="M14 4.5V9c5.523 0 10 4.477 10 10 0 .273-.01.543-.032.81a9.003 9.003 0 0 0-7.655-4.805L16 15h-2v4.5L6 12l8-7.5zm-6 0v2.737L2.92 12l5.079 4.761L8 19.5 0 12l8-7.5z" fill="#342922"/></symbol><symbol id="lazy" viewBox="0 0 100 100" preserveAspectRatio="xMidYMid"><rect x="47" y="24" rx="3" ry="6" width="6" height="12" fill="#fe718d" style="animation-play-state:running;animation-delay:0s"><animate attributeName="opacity" values="1;0" keyTimes="0;1" dur="1s" begin="-0.9166666666666666s" repeatCount="indefinite"/></rect><rect x="47" y="24" rx="3" ry="6" width="6" height="12" fill="#fe718d" style="animation-play-state:running;animation-delay:0s" transform="rotate(30 50 50)"><animate attributeName="opacity" values="1;0" keyTimes="0;1" dur="1s" begin="-0.8333333333333334s" repeatCount="indefinite"/></rect><rect x="47" y="24" rx="3" ry="6" width="6" height="12" fill="#fe718d" style="animation-play-state:running;animation-delay:0s" transform="rotate(60 50 50)"><animate attributeName="opacity" values="1;0" keyTimes="0;1" dur="1s" begin="-0.75s" repeatCount="indefinite"/></rect><rect x="47" y="24" rx="3" ry="6" width="6" height="12" fill="#fe718d" style="animation-play-state:running;animation-delay:0s" transform="rotate(90 50 50)"><animate attributeName="opacity" values="1;0" keyTimes="0;1" dur="1s" begin="-0.6666666666666666s" repeatCount="indefinite"/></rect><rect x="47" y="24" rx="3" ry="6" width="6" height="12" fill="#fe718d" style="animation-play-state:running;animation-delay:0s" transform="rotate(120 50 50)"><animate attributeName="opacity" values="1;0" keyTimes="0;1" dur="1s" begin="-0.5833333333333334s" repeatCount="indefinite"/></rect><rect x="47" y="24" rx="3" ry="6" width="6" height="12" fill="#fe718d" style="animation-play-state:running;animation-delay:0s" transform="rotate(150 50 50)"><animate attributeName="opacity" values="1;0" keyTimes="0;1" dur="1s" begin="-0.5s" repeatCount="indefinite"/></rect><rect x="47" y="24" rx="3" ry="6" width="6" height="12" fill="#fe718d" style="animation-play-state:running;animation-delay:0s" transform="rotate(180 50 50)"><animate attributeName="opacity" values="1;0" keyTimes="0;1" dur="1s" begin="-0.4166666666666667s" repeatCount="indefinite"/></rect><rect x="47" y="24" rx="3" ry="6" width="6" height="12" fill="#fe718d" style="animation-play-state:running;animation-delay:0s" transform="rotate(210 50 50)"><animate attributeName="opacity" values="1;0" keyTimes="0;1" dur="1s" begin="-0.3333333333333333s" repeatCount="indefinite"/></rect><rect x="47" y="24" rx="3" ry="6" width="6" height="12" fill="#fe718d" style="animation-play-state:running;animation-delay:0s" transform="rotate(240 50 50)"><animate attributeName="opacity" values="1;0" keyTimes="0;1" dur="1s" begin="-0.25s" repeatCount="indefinite"/></rect><rect x="47" y="24" rx="3" ry="6" width="6" height="12" fill="#fe718d" style="animation-play-state:running;animation-delay:0s" transform="rotate(270 50 50)"><animate attributeName="opacity" values="1;0" keyTimes="0;1" dur="1s" begin="-0.16666666666666666s" repeatCount="indefinite"/></rect><rect x="47" y="24" rx="3" ry="6" width="6" height="12" fill="#fe718d" style="animation-play-state:running;animation-delay:0s" transform="rotate(300 50 50)"><animate attributeName="opacity" values="1;0" keyTimes="0;1" dur="1s" begin="-0.08333333333333333s" repeatCount="indefinite"/></rect><rect x="47" y="24" rx="3" ry="6" width="6" height="12" fill="#fe718d" style="animation-play-state:running;animation-delay:0s" transform="rotate(330 50 50)"><animate attributeName="opacity" values="1;0" keyTimes="0;1" dur="1s" begin="0s" repeatCount="indefinite"/></rect></symbol><symbol id="lock-square" viewBox="0 0 24 24"><path d="M5 22h14a3 3 0 0 0 3-3v-9a3 3 0 0 0-3-3h-2V6A5 5 0 0 0 7 6v1H5a3 3 0 0 0-3 3v9a3 3 0 0 0 3 3zM9 6a3 3 0 1 1 6 0v1H9V6zm-5 4a1 1 0 0 1 1-1h14a1 1 0 0 1 1 1v9a1 1 0 0 1-1 1H5a1 1 0 0 1-1-1v-9zm6 4.5a2 2 0 1 1 4 0 2 2 0 0 1-4 0z" fill="#fff" fill-opacity=".5"/></symbol><symbol id="logo" viewBox="0 0 150 54"><path d="M100.872 10.22s-3.94 2.643-.883 4.513c1.986 1.225 6.618 3.804 6.334 5.803 0 0 2.206-2.676-.693-4.836-1.859-1.354-6.996-3.288-4.758-5.48zM106.071 1.225s-.315 2.16-3.718 3.224c-4.034 1.257-8.73 4.61-7.469 9.607 0 0-2.52-6.35 4.034-9.704 4.538-2.353 5.168-1.773 7.153-3.127zM108.151 28.531c-.031 0 .347 1.419 2.143 2.547 1.954 1.225 5.578 2.128 11.471 1.354 12.069-1.547 27.447-2.063 27.857 7.609 0 0-.031-5.739-12.889-5.287-10.998.419-26.691 3.32-28.582-6.223zM110.137 25.21s-.284-3.642 4.569-3.513c4.884.097 8.067 2.643 14.023 4.32 4.601 1.29 9.107 1.257 11.849.548 0 0-7.5 5.061-17.868.064-10.367-4.997-11.659-2.32-12.573-1.418zM110.987 19.472s1.072-3.062 7.532-3.095c7.783 0 13.078.162 14.968-2.61 0 0 .315 5.867-9.107 5.125-8.225-.645-12.29.161-13.393.58z" fill="#fff"/><path d="M105.252 25.855s.347-2.256-2.647-4.126c-8.225-5.19-6.334-5.964-3.813-8.543 0 0-1.48 1.482 1.985 2.804 3.435 1.29 5.61 4.481 5.547 6.351-.063 1.806-1.072 3.514-1.072 3.514z" fill="#fff"/><path d="M99.454 11.541s-3.75 2.999.315 5.9c2.741 1.967 5.987 2.74 5.42 5.545 0 0 3.75-4.352-.567-6.383-3.309-1.612-6.208-2.547-5.168-5.062zM109.317 25.082s-.252-7.996 11.534-6.222c8.54 1.29 22.468 4.062 26.533-3.74 0 0-.22 14.056-19.538 10.574 0 0-2.773-.387-9.264-2.611-6.114-2.063-8.13 1.032-9.265 1.999z" fill="#fff"/><path d="M110.735 22.438s-.913-5.77 9.517-4.964c7.5.58 20.452-.806 23.351-4.514 0 0-2.08 10.284-16.481 7.673-16.387-2.966-16.387 1.805-16.387 1.805zM98.666 18.988s-.284-.58-.41-1.321c-.44-2.676-.472-8.64 7.721-7.415 8.13 1.225 12.794-1.806 13.834-5.77 0 0-3.309 3.578-11.313 3.094-10.053-.613-13.771 4.417-9.832 11.412z" fill="#fff"/><path d="M118.298 1.193s-1.827 5.996-10.462 6.835c-6.208.612-8.162 2.095-9.359 3.707-.977 1.322-1.544 3.9.19 7.254 0 0-3.593-4.127-1.923-7.64 1.67-3.515 4.191-5.03 8.981-6.094 3.529-.806 9.485-1.193 12.573-4.062z" fill="#fff"/><path d="M111.397.097s-.473 3.256-7.91 6.254c-5.357 2.16-9.107 6.673-4.79 12.638 0 0-7.09-5.32-3.056-11.38 0 0 1.953-3.16 7.027-4.16 3.025-.644 7.153-1.386 8.729-3.352zM108.939 28.66s-1.922 4.127 15.41 5.964c21.145 2.225 18.687 10.833 17.584 12.928 0 0 1.859-4.546-8.036-7.963-8.697-2.966-9.485-.935-16.197-3.965-6.744-2.998-10.211-3.127-8.761-6.964z" fill="#fff"/><path d="M107.08 31.304s1.261 1.547 7.847 6.093c7.153 4.933 2.867 16.603-6.586 14.765 0 0 5.766 2.74 10.619-.87 6.492-4.804 1.355-13.573-5.325-16.41-4.286-1.805-4.381-2.224-6.555-3.578z" fill="#fff"/><path d="M117.447 13.121s-8.287-3.417-11.344 4.868c-3.057 8.286-1.072 12.8 4.349 15.894 5.42 3.063 19.285 9.317 17.552 17.312 0 0 6.082-11.928-11.344-16.603-10.652-2.837-7.816-6.319-6.019-10.38 2.332-5.256 1.544-10.994 6.806-11.09zM8.193 32.045a.785.785 0 0 1-.063.29c-.031.097-.094.162-.157.258a.683.683 0 0 1-.252.161.901.901 0 0 1-.284.065.901.901 0 0 1-.284-.065.683.683 0 0 1-.252-.16l-5.42-5.804v5.9H0v-7.737c0-.162.032-.29.126-.42a.902.902 0 0 1 .315-.29.708.708 0 0 1 .441-.032.582.582 0 0 1 .378.226l5.42 5.803v-5.932h1.513v7.737zM18.718 32.69h-1.607v-2.224H11.44v2.224H9.832v-4.545c0-.677.126-1.29.346-1.838.221-.548.536-1.032.946-1.45.41-.388.85-.71 1.418-.936.536-.225 1.134-.322 1.765-.322h3.623c.127 0 .221.032.316.064a.491.491 0 0 1 .252.194c.063.064.126.161.189.258.031.096.063.193.063.322l-.032 8.253zm-7.28-3.9h5.673v-3.547h-2.836c-.063 0-.158 0-.315.032-.158 0-.347.065-.567.097-.22.064-.442.161-.662.258a2.35 2.35 0 0 0-.63.516c-.19.225-.347.483-.473.806-.126.322-.19.709-.19 1.193v.644zM30.945 32.69h-1.638v-5.416l-2.868 5.158a.626.626 0 0 1-.283.29.856.856 0 0 1-.41.097.952.952 0 0 1-.41-.097.626.626 0 0 1-.283-.29l-2.868-5.158v5.416h-1.607v-8.382a.99.99 0 0 1 .157-.516.612.612 0 0 1 .442-.29c.094-.032.189-.032.252-.032.094 0 .157.032.252.064a.504.504 0 0 1 .22.13c.063.064.127.128.158.193l3.687 6.544 3.687-6.544a.75.75 0 0 1 .41-.355c.157-.064.346-.064.535-.032.19.064.315.161.442.29.125.161.157.322.157.516v8.414h-.032zM42.164 29.015c0 .548-.095 1.064-.284 1.515-.189.451-.44.87-.787 1.193a3.629 3.629 0 0 1-1.166.806c-.441.193-.946.29-1.481.29H36.27c-.535 0-1.04-.097-1.48-.29-.442-.194-.852-.451-1.167-.806-.346-.322-.599-.741-.788-1.193a3.926 3.926 0 0 1-.283-1.515v-1.741c0-.548.094-1.064.283-1.515.19-.451.442-.87.788-1.193a3.8 3.8 0 0 1 1.166-.806c.441-.193.946-.29 1.481-.29h2.175c.535 0 1.04.097 1.48.29.442.193.852.451 1.167.806.315.322.598.742.787 1.193.19.483.284.967.284 1.515v1.74zm-1.607-1.741c0-.322-.063-.613-.158-.87a1.924 1.924 0 0 0-.44-.677c-.19-.194-.41-.323-.663-.452a2.358 2.358 0 0 0-.85-.161H36.27c-.315 0-.599.064-.85.161a1.874 1.874 0 0 0-.662.452c-.19.193-.316.419-.442.677a2.512 2.512 0 0 0-.157.87v1.74c0 .323.063.614.157.871.095.258.252.484.442.677.189.194.41.323.661.452.252.096.536.16.851.16h2.175c.315 0 .598-.064.85-.16.252-.097.473-.258.662-.452.19-.193.315-.419.441-.677.095-.258.158-.548.158-.87v-1.741zM52.626 26.63c0 .386-.031.708-.126.998-.094.29-.22.549-.378.774-.158.226-.347.42-.536.58-.189.162-.41.29-.63.387-.22.097-.441.194-.662.226-.22.032-.44.065-.63.065l3.372 2.966h-2.49l-3.371-2.966h-1.166v-1.612h3.655c.19-.033.378-.065.567-.13a1.318 1.318 0 0 0 .725-.709c.063-.16.094-.354.094-.58v-1.032c0-.096 0-.16-.031-.225-.032-.065-.063-.097-.094-.097-.032-.032-.063-.032-.127-.032h-5.42v7.447h-1.607v-8.285c0-.13.032-.226.063-.323a.706.706 0 0 1 .158-.258c.063-.064.157-.129.252-.193.094-.032.22-.065.315-.065h6.113c.347 0 .662.065.914.194s.441.29.599.516c.158.193.252.419.347.644.063.226.094.452.094.645v1.064z" fill="#fff"/><path d="M62.994 32.69h-1.608v-2.224h-5.672v2.224h-1.607v-4.545c0-.677.126-1.29.347-1.838.22-.548.535-1.032.945-1.45.41-.388.85-.71 1.418-.936.536-.225 1.135-.322 1.765-.322h3.624c.126 0 .22.032.315.064a.49.49 0 0 1 .252.194c.063.096.126.161.19.258.03.096.062.193.062.322v8.253h-.031zm-7.28-3.9h5.672v-3.547H58.55c-.063 0-.157 0-.315.032-.157 0-.346.065-.567.097-.22.064-.441.161-.662.258-.22.129-.441.29-.63.516a2.83 2.83 0 0 0-.473.806c-.126.322-.189.709-.189 1.193v.644zM73.74 28.886c0 .548-.095 1.064-.284 1.515-.19.451-.441.87-.788 1.193-.347.322-.725.612-1.166.806-.441.193-.945.29-1.48.29h-4.35c-.126 0-.22-.032-.315-.064a.683.683 0 0 1-.252-.162.705.705 0 0 1-.157-.258 1.166 1.166 0 0 1-.063-.322v-7.48a.97.97 0 0 1 .063-.322.705.705 0 0 1 .157-.258c.063-.064.158-.129.252-.193.095-.032.22-.065.315-.065h4.35c.535 0 1.039.097 1.48.29.441.194.851.452 1.166.806.347.323.599.742.788 1.193.189.484.284.968.284 1.516v1.515zm-1.608-1.483c0-.323-.063-.613-.157-.87a1.924 1.924 0 0 0-.441-.678c-.19-.193-.41-.322-.662-.451a2.358 2.358 0 0 0-.85-.161H66.46v5.803h3.561c.315 0 .599-.065.85-.161.253-.097.474-.258.663-.452.189-.193.315-.419.44-.677.095-.258.158-.548.158-.87v-1.483zM84.044 32.69h-1.607v-2.224h-5.672v2.224h-1.607v-4.545c0-.677.126-1.29.346-1.838.22-.548.536-1.032.946-1.45.41-.388.85-.71 1.418-.936.535-.225 1.134-.322 1.764-.322h3.624c.126 0 .22.032.316.064a.491.491 0 0 1 .252.194c.063.064.126.161.189.258a.97.97 0 0 1 .063.322v8.253h-.032zm-7.28-3.9h5.673v-3.547h-2.836c-.063 0-.158 0-.315.032-.158 0-.347.065-.567.097-.221.064-.442.161-.662.258a2.35 2.35 0 0 0-.63.516c-.19.225-.347.483-.473.806-.126.322-.19.709-.19 1.193v.644zM94.475 30.014c0 .323-.032.613-.126.87-.095.259-.19.484-.315.678a2.404 2.404 0 0 1-.473.515c-.19.13-.347.259-.567.355a1.97 1.97 0 0 1-.567.194c-.19.032-.379.064-.568.064h-6.208v-1.644h6.208c.315 0 .536-.097.725-.29.158-.194.252-.452.252-.742 0-.16-.031-.29-.063-.419-.031-.129-.126-.226-.189-.322a1.134 1.134 0 0 0-.315-.226c-.126-.064-.252-.064-.41-.064h-3.718c-.252 0-.536-.033-.851-.13-.315-.096-.567-.257-.85-.45a2.42 2.42 0 0 1-.631-.839 3.071 3.071 0 0 1-.252-1.257c0-.484.094-.903.252-1.258a2.42 2.42 0 0 1 .63-.838c.252-.225.536-.354.851-.451.315-.097.599-.129.85-.129h5.484v1.644h-5.483c-.315 0-.536.097-.725.29a1.166 1.166 0 0 0-.252.742c0 .322.094.58.252.741.158.194.41.29.725.29h3.718c.19 0 .347.033.568.065.189.032.378.129.567.193.189.097.378.226.535.355.19.129.316.322.473.516.126.193.252.419.315.677.126.258.158.548.158.87zM61.859 40.846h-6.46v7.448h-1.607V40.04c0-.13.031-.226.063-.323a.705.705 0 0 1 .157-.258c.063-.064.158-.129.252-.193a1.1 1.1 0 0 1 .316-.065h7.279v1.645zm-.725 3.708H56.03v-1.677h5.105v1.677zM72.448 44.586c0 .548-.095 1.064-.284 1.516-.19.45-.441.87-.788 1.192a3.63 3.63 0 0 1-1.166.806c-.441.194-.945.29-1.481.29h-2.174c-.536 0-1.04-.096-1.481-.29-.442-.193-.851-.451-1.166-.806-.347-.322-.6-.741-.788-1.192a3.924 3.924 0 0 1-.284-1.516v-1.708c0-.548.095-1.064.284-1.516.189-.45.441-.87.788-1.192a3.8 3.8 0 0 1 1.166-.806c.44-.194.945-.29 1.48-.29h2.175c.536 0 1.04.096 1.481.29.441.193.851.451 1.166.806.315.322.599.741.788 1.192.189.484.284.968.284 1.516v1.708zm-1.608-1.708a2.51 2.51 0 0 0-.157-.87 1.923 1.923 0 0 0-.441-.678c-.19-.193-.41-.322-.662-.451a2.356 2.356 0 0 0-.851-.161h-2.174c-.316 0-.6.064-.851.16a1.874 1.874 0 0 0-.662.452c-.189.194-.315.42-.441.677a2.513 2.513 0 0 0-.158.87v1.742c0 .322.063.612.158.87.094.258.252.484.441.677.19.194.41.322.662.451.252.097.536.162.85.162h2.175c.315 0 .599-.065.85-.162.253-.096.474-.258.663-.451.189-.193.315-.42.44-.677a2.51 2.51 0 0 0 .158-.87v-1.741zM82.122 40.846h-6.46v7.448h-1.607V40.04c0-.13.031-.226.063-.323a.704.704 0 0 1 .157-.258c.063-.064.158-.129.252-.193.095-.033.221-.065.316-.065h7.279v1.645zm-.725 3.708h-5.105v-1.677h5.105v1.677zM92.71 44.586c0 .548-.095 1.064-.284 1.516-.189.45-.44.87-.788 1.192a3.629 3.629 0 0 1-1.165.806c-.442.194-.946.29-1.481.29h-2.175c-.536 0-1.04-.096-1.481-.29-.441-.193-.85-.451-1.166-.806-.347-.322-.599-.741-.788-1.192a3.926 3.926 0 0 1-.283-1.516v-1.708c0-.548.094-1.064.283-1.516.19-.45.441-.87.788-1.192.347-.323.725-.613 1.166-.806.441-.194.945-.29 1.481-.29h2.175c.535 0 1.04.096 1.48.29.442.193.851.451 1.166.806.347.322.6.741.788 1.192.19.484.284.968.284 1.516v1.708zm-1.639-1.708c0-.323-.063-.613-.157-.87a1.924 1.924 0 0 0-.441-.678c-.19-.193-.41-.322-.662-.451a2.356 2.356 0 0 0-.851-.161h-2.174c-.316 0-.6.064-.851.16a1.875 1.875 0 0 0-.662.452c-.19.194-.315.42-.441.677a2.513 2.513 0 0 0-.158.87v1.742c0 .322.063.612.158.87.094.258.252.484.441.677.19.194.41.322.662.451.252.097.535.162.85.162h2.175c.315 0 .599-.065.85-.162.253-.096.474-.258.663-.451.189-.193.315-.42.44-.677.095-.258.158-.548.158-.87v-1.741zM102.826 45.618c0 .322-.032.612-.126.87a3.313 3.313 0 0 1-.316.677 2.4 2.4 0 0 1-.472.516 2.11 2.11 0 0 1-.567.355 1.99 1.99 0 0 1-.568.193c-.189.032-.378.065-.567.065h-6.208V46.65h6.208c.315 0 .536-.097.725-.29a1.17 1.17 0 0 0 .252-.742c0-.161-.032-.29-.063-.42-.032-.128-.126-.225-.189-.322a1.14 1.14 0 0 0-.315-.225c-.126-.065-.252-.065-.41-.065h-3.718c-.252 0-.536-.032-.851-.129-.315-.096-.567-.258-.851-.451a2.422 2.422 0 0 1-.63-.838 3.072 3.072 0 0 1-.252-1.258c0-.483.094-.902.252-1.257.157-.355.378-.612.63-.838.252-.226.536-.355.85-.451.316-.097.6-.13.852-.13h5.483v1.645h-5.483c-.316 0-.536.096-.725.29a1.167 1.167 0 0 0-.252.741c0 .323.094.58.252.742.157.193.41.29.725.29h3.718c.189 0 .347.032.567.065.221.032.378.129.568.193.189.097.378.226.535.355.189.129.315.322.473.515.126.194.252.42.315.678.126.225.158.515.158.87z" fill="#FFFFFD"/></symbol><symbol id="mail" viewBox="0 0 24 24"><path d="M19 4H5a3 3 0 0 0-3 3v10a3 3 0 0 0 3 3h14a3 3 0 0 0 3-3V7a3 3 0 0 0-3-3zM5 6h14a1 1 0 0 1 1 1l-8 4.88L4 7a1 1 0 0 1 1-1zm15 11a1 1 0 0 1-1 1H5a1 1 0 0 1-1-1V9.28l7.48 4.57a1 1 0 0 0 1 0L20 9.28V17z" fill="#fff"/></symbol><symbol id="password" viewBox="0 0 24 24"><path d="M11 11.72V15a1 1 0 0 0 2 0v-3.28A2 2 0 0 0 14 10a2 2 0 1 0-4 0 2 2 0 0 0 1 1.72zM21 2H3a1 1 0 0 0-1 1v18a1 1 0 0 0 1 1h18a1 1 0 0 0 1-1V3a1 1 0 0 0-1-1zm-1 18H4V4h16v16z" fill="#fff"/></symbol><symbol id="user" viewBox="0 0 24 24"><path d="M12 11a5 5 0 1 0 0-10 5 5 0 0 0 0 10zm0-8a3 3 0 1 1 0 6 3 3 0 0 1 0-6zM4 23h16a1 1 0 0 0 1-1v-4a5.006 5.006 0 0 0-5-5H8a5.006 5.006 0 0 0-5 5v4a1 1 0 0 0 1 1zm1-5a3 3 0 0 1 3-3h8a3 3 0 0 1 3 3v3H5v-3z" fill="#fff"/></symbol></svg>